<?xml version="1.0" encoding="iso-8859-1"?>
<!-- Uploaded to: SVG Repo, www.svgrepo.com, Generator: SVG Repo Mixer Tools -->
<svg version="1.1" id="Layer_1" xmlns="http://www.w3.org/2000/svg" xmlns:xlink="http://www.w3.org/1999/xlink" 
	 viewBox="0 0 512 512" xml:space="preserve">
<path style="fill:#CFCDD2;" d="M256,102.4h-40.96V61.44c0-11.293-9.187-20.48-20.48-20.48s-20.48,9.187-20.48,20.48v40.96h-40.96
	V61.44C133.12,27.562,160.682,0,194.56,0S256,27.562,256,61.44V102.4z"/>
<polygon style="fill:#DFDFE1;" points="419.84,471.04 378.88,512 133.119,512 92.16,471.04 92.16,129.707 133.12,88.747 
	378.881,88.747 419.84,129.707 "/>
<polygon style="fill:#CFCDD2;" points="378.88,88.747 256,88.747 256,512 378.88,512 419.84,471.04 419.84,129.707 "/>
<rect x="92.16" y="129.707" style="fill:#E17858;" width="327.68" height="341.333"/>
<rect x="256" y="129.707" style="fill:#FF4F19;" width="163.84" height="341.333"/>
<path style="fill:#F2F2F4;" d="M133.12,471.04H92.16c0-107.965,81.995-150.914,154.337-188.809
	c71.034-37.208,132.383-69.343,132.383-152.524h40.96c0,107.965-81.995,150.914-154.337,188.809
	C194.467,355.724,133.12,387.858,133.12,471.04z"/>
<path style="fill:#DFDFE1;" d="M378.88,129.707c0,79.447-55.965,112.329-122.88,147.539v46.255c3.146-1.655,6.313-3.315,9.503-4.985
	c72.342-37.895,154.337-80.844,154.337-188.809H378.88z"/>
</svg>